<svg width="49" height="24" viewBox="0 0 49 24" fill="none" xmlns="http://www.w3.org/2000/svg">
<path fill-rule="evenodd" clip-rule="evenodd" d="M4 0C1.79086 0 0 1.79086 0 4V15C0 17.2091 1.79086 19 4 19H19L23.2929 23.2929C23.6834 23.6834 24.3166 23.6834 24.7071 23.2929L29 19H45C47.2091 19 49 17.2091 49 15V4C49 1.79086 47.2091 0 45 0H4Z" fill="#4C8274"/>
<path fill-rule="evenodd" clip-rule="evenodd" d="M8.94102 13.989C10.5213 13.989 11.7723 13.0892 11.7723 11.6845C11.7723 10.3567 10.9273 9.66529 9.17147 9.31413C8.12894 9.09465 7.5583 8.87517 7.5583 8.27161C7.5583 7.5583 8.12894 7.20713 8.93004 7.20713C9.77503 7.20713 10.1591 7.65706 10.3676 8.44719L11.6187 8.09602C11.2894 6.77915 10.3457 6 8.93004 6C7.33882 6 6.21948 6.93278 6.21948 8.27161C6.21948 9.58848 7.19616 10.2579 8.93004 10.5761C10.1152 10.7846 10.4335 11.1687 10.4335 11.6845C10.4335 12.4088 9.80796 12.7819 8.94102 12.7819C7.96433 12.7819 7.5144 12.332 7.25103 11.4431L6 11.8052C6.37311 13.2318 7.42661 13.989 8.94102 13.989ZM16.5741 13.989C18.286 13.989 19.4053 13.155 19.9431 11.7503L18.6811 11.3333C18.4177 12.1015 17.7812 12.7599 16.596 12.7599C15.1584 12.7599 14.072 11.6516 14.072 10.0055C14.072 8.43621 15.1145 7.24005 16.5631 7.24005C17.7263 7.24005 18.4067 7.87654 18.692 8.80933L19.976 8.39232C19.4602 6.82305 18.1763 6 16.5521 6C14.3134 6 12.7332 7.67901 12.7332 9.99451C12.7332 12.4198 14.3464 13.989 16.5741 13.989ZM28.81 9.99451C28.81 12.1454 27.3176 13.989 24.8923 13.989C22.4451 13.989 20.9636 12.1454 20.9636 9.99451C20.9636 7.84362 22.4342 6 24.8923 6C27.3176 6 28.81 7.84362 28.81 9.99451ZM22.3025 9.99451C22.3025 11.5748 23.2901 12.749 24.8923 12.749C26.4726 12.749 27.4712 11.5748 27.4712 9.99451C27.4712 8.42524 26.4726 7.24005 24.8923 7.24005C23.3011 7.24005 22.3025 8.42524 22.3025 9.99451ZM33.1824 14C34.8394 14 36.2002 13.1331 36.2002 10.8505V6.16461H34.8614V10.7737C34.8614 12.1125 34.2797 12.7599 33.1824 12.7599C32.0959 12.7599 31.5033 12.1564 31.5033 10.7737V6.16461H30.1645V10.8395C30.1645 13.1001 31.5582 14 33.1824 14ZM40.8453 13.8464H39.5065V9.05883H40.8453V13.8464ZM40.8453 7.41176H43.0621V6.16461H37.2898V7.41176H39.5065H40.8453Z" fill="#F3F3F3"/>
</svg>
